{
  "accessors": [
    {
      "bufferView": 2,
      "componentType": 5126,
      "count": 388,
      "max": [
        0.5062134861946106,
        4.2073254585266113,
        3.0672028064727783
      ],
      "min": [
        -2.0955460071563721,
        -4.2116193771362305,
        -3.0672028064727783
      ],
      "type": "VEC3"
    },
    {
      "bufferView": 2,
      "byteOffset": 4656,
      "componentType": 5126,
      "count": 388,
      "max": [
        1,
        1,
        1
      ],
      "min": [
        -1,
        -1,
        -1
      ],
      "type": "VEC3"
    },
    {
      "bufferView": 3,
      "componentType": 5126,
      "count": 388,
      "max": [
        0.99999994039535522,
        0.71776068210601807,
        0.99998629093170166,
        1
      ],
      "min": [
        -0.99943733215332031,
        -0.71896225214004517,
        -0.9999966025352478,
        1
      ],
      "type": "VEC4"
    },
    {
      "bufferView": 1,
      "componentType": 5126,
      "count": 388,
      "max": [
        1,
        0.90155458450317383
      ],
      "min": [
        0,
        0
      ],
      "type": "VEC2"
    },
    {
      "bufferView": 0,
      "componentType": 5125,
      "count": 1470,
      "max": [
        387
      ],
      "min": [
        0
      ],
      "type": "SCALAR"
    },
    {
      "bufferView": 2,
      "byteOffset": 9312,
      "componentType": 5126,
      "count": 63,
      "max": [
        0.24369120597839355,
        3.6240620613098145,
        2.89166259765625
      ],
      "min": [
        -0.66565042734146118,
        3.1117005348205566,
        1.9850046634674072
      ],
      "type": "VEC3"
    },
    {
      "bufferView": 2,
      "byteOffset": 10068,
      "componentType": 5126,
      "count": 63,
      "max": [
        1,
        0.92270731925964355,
        0.92270654439926147
      ],
      "min": [
        -1,
        -0.38550329208374023,
        -0.9227064847946167
      ],
      "type": "VEC3"
    },
    {
      "bufferView": 3,
      "byteOffset": 6208,
      "componentType": 5126,
      "count": 63,
      "max": [
        1,
        0.38550353050231934,
        0.9227064847946167,
        1
      ],
      "min": [
        -1,
        -0.3855033814907074,
        -0.9227064847946167,
        1
      ],
      "type": "VEC4"
    },
    {
      "bufferView": 1,
      "byteOffset": 3104,
      "componentType": 5126,
      "count": 63,
      "max": [
        0.44264316558837891,
        0.052502155303955078
      ],
      "min": [
        0.146387979388237,
        0
      ],
      "type": "VEC2"
    },
    {
      "bufferView": 0,
      "byteOffset": 5880,
      "componentType": 5125,
      "count": 180,
      "max": [
        62
      ],
      "min": [
        0
      ],
      "type": "SCALAR"
    },
    {
      "bufferView": 2,
      "byteOffset": 10824,
      "componentType": 5126,
      "count": 105,
      "max": [
        0.21619758009910583,
        3.5541665554046631,
        2.8415188789367676
      ],
      "min": [
        -0.63815677165985107,
        2.7132976055145264,
        1.8394926786422729
      ],
      "type": "VEC3"
    },
    {
      "bufferView": 2,
      "byteOffset": 12084,
      "componentType": 5126,
      "count": 105,
      "max": [
        0.9970242977142334,
        0.94242089986801147,
        0.98493373394012451
      ],
      "min": [
        -0.99702435731887817,
        -0.87482237815856934,
        -0.96281659603118896
      ],
      "type": "VEC3"
    },
    {
      "bufferView": 3,
      "byteOffset": 7216,
      "componentType": 5126,
      "count": 105,
      "max": [
        1,
        0.41174182295799255,
        0.93038243055343628,
        1
      ],
      "min": [
        -0.99968826770782471,
        -0.39194056391716003,
        -0.92110955715179443,
        1
      ],
      "type": "VEC4"
    },
    {
      "bufferView": 1,
      "byteOffset": 3608,
      "componentType": 5126,
      "count": 105,
      "max": [
        0.25022321939468384,
        0.04936528205871582
      ],
      "min": [
        0,
        0
      ],
      "type": "VEC2"
    },
    {
      "bufferView": 0,
      "byteOffset": 6600,
      "componentType": 5125,
      "count": 420,
      "max": [
        104
      ],
      "min": [
        0
      ],
      "type": "SCALAR"
    },
    {
      "bufferView": 2,
      "byteOffset": 13344,
      "componentType": 5126,
      "count": 472,
      "max": [
        0.39918237924575806,
        4.1940727233886719,
        1.2889313697814941
      ],
      "min": [
        -1.9885678291320801,
        2.8930497169494629,
        -2.2555258274078369
      ],
      "type": "VEC3"
    },
    {
      "bufferView": 2,
      "byteOffset": 19008,
      "componentType": 5126,
      "count": 472,
      "max": [
        1,
        1,
        0.79590308666229248
      ],
      "min": [
        -1,
        -1,
        -0.79590487480163574
      ],
      "type": "VEC3"
    },
    {
      "bufferView": 3,
      "byteOffset": 8896,
      "componentType": 5126,
      "count": 472,
      "max": [
        1,
        0.9999929666519165,
        0.76344102621078491,
        1
      ],
      "min": [
        -0.99999266862869263,
        -0.99999845027923584,
        -0.81529951095581055,
        1
      ],
      "type": "VEC4"
    },
    {
      "bufferView": 1,
      "byteOffset": 4448,
      "componentType": 5126,
      "count": 472,
      "max": [
        0.54289907217025757,
        0.80530142784118652
      ],
      "min": [
        0.12596175074577332,
        0
      ],
      "type": "VEC2"
    },
    {
      "bufferView": 0,
      "byteOffset": 8280,
      "componentType": 5125,
      "count": 1944,
      "max": [
        471
      ],
      "min": [
        0
      ],
      "type": "SCALAR"
    }
  ],
  "asset": {
    "extras": {
      "author": "caboosereynolds (https://sketchfab.com/caboosereynolds)",
      "license": "CC-BY-4.0 (http://creativecommons.org/licenses/by/4.0/)",
      "source": "https://sketchfab.com/models/7582cedb0c2d457ca84642a2ed517fa9",
      "title": "Jerry Can"
    },
    "generator": "Sketchfab-3.49.1",
    "version": "2.0"
  },
  "bufferViews": [
    {
      "buffer": 0,
      "byteLength": 16056,
      "byteOffset": 0,
      "name": "floatBufferViews",
      "target": 34963
    },
    {
      "buffer": 0,
      "byteLength": 8224,
      "byteOffset": 16056,
      "byteStride": 8,
      "name": "floatBufferViews",
      "target": 34962
    },
    {
      "buffer": 0,
      "byteLength": 24672,
      "byteOffset": 24280,
      "byteStride": 12,
      "name": "floatBufferViews",
      "target": 34962
    },
    {
      "buffer": 0,
      "byteLength": 16448,
      "byteOffset": 48952,
      "byteStride": 16,
      "name": "floatBufferViews",
      "target": 34962
    }
  ],
  "buffers": [
    {
      "byteLength": 65400,
      "uri": "scene.bin"
    }
  ],
  "images": [
    {
      "uri": "textures/lambert1_metallicRoughness.png"
    },
    {
      "uri": "textures/lambert1_baseColor.jpeg"
    },
    {
      "uri": "textures/lambert1_normal.png"
    }
  ],
  "materials": [
    {
      "doubleSided": true,
      "emissiveFactor": [
        0,
        0,
        0
      ],
      "name": "lambert1",
      "normalTexture": {
        "index": 2,
        "scale": 1,
        "texCoord": 0
      },
      "occlusionTexture": {
        "index": 0,
        "strength": 1,
        "texCoord": 0
      },
      "pbrMetallicRoughness": {
        "baseColorFactor": [
          1,
          1,
          1,
          1
        ],
        "baseColorTexture": {
          "index": 1,
          "texCoord": 0
        },
        "metallicFactor": 1,
        "metallicRoughnessTexture": {
          "index": 0,
          "texCoord": 0
        },
        "roughnessFactor": 1
      }
    }
  ],
  "meshes": [
    {
      "name": "pCube1_lambert1_0",
      "primitives": [
        {
          "attributes": {
            "NORMAL": 1,
            "POSITION": 0,
            "TANGENT": 2,
            "TEXCOORD_0": 3
          },
          "indices": 4,
          "material": 0,
          "mode": 4
        }
      ]
    },
    {
      "name": "pCylinder4_lambert1_0",
      "primitives": [
        {
          "attributes": {
            "NORMAL": 6,
            "POSITION": 5,
            "TANGENT": 7,
            "TEXCOORD_0": 8
          },
          "indices": 9,
          "material": 0,
          "mode": 4
        }
      ]
    },
    {
      "name": "pCylinder5_lambert1_0",
      "primitives": [
        {
          "attributes": {
            "NORMAL": 11,
            "POSITION": 10,
            "TANGENT": 12,
            "TEXCOORD_0": 13
          },
          "indices": 14,
          "material": 0,
          "mode": 4
        }
      ]
    },
    {
      "name": "pCylinder6_lambert1_0",
      "primitives": [
        {
          "attributes": {
            "NORMAL": 16,
            "POSITION": 15,
            "TANGENT": 17,
            "TEXCOORD_0": 18
          },
          "indices": 19,
          "material": 0,
          "mode": 4
        }
      ]
    }
  ],
  "nodes": [
    {
      "children": [
        1
      ],
      "name": "RootNode (gltf orientation matrix)",
      "rotation": [
        -0.70710678118654746,
        -0,
        -0,
        0.70710678118654757
      ]
    },
    {
      "children": [
        2
      ],
      "name": "RootNode (model correction matrix)"
    },
    {
      "children": [
        3
      ],
      "matrix": [
        1,
        0,
        0,
        0,
        0,
        0,
        1,
        0,
        0,
        -1,
        0,
        0,
        0,
        0,
        0,
        1
      ],
      "name": "6ff5d4a9bc6f48a9977b4bb079ee4397.fbx"
    },
    {
      "children": [
        4,
        6,
        8,
        10
      ],
      "name": "RootNode"
    },
    {
      "children": [
        5
      ],
      "name": "pCube1"
    },
    {
      "mesh": 0,
      "name": "pCube1_lambert1_0"
    },
    {
      "children": [
        7
      ],
      "name": "pCylinder4"
    },
    {
      "mesh": 1,
      "name": "pCylinder4_lambert1_0"
    },
    {
      "children": [
        9
      ],
      "name": "pCylinder5"
    },
    {
      "mesh": 2,
      "name": "pCylinder5_lambert1_0"
    },
    {
      "children": [
        11
      ],
      "name": "pCylinder6"
    },
    {
      "mesh": 3,
      "name": "pCylinder6_lambert1_0"
    }
  ],
  "samplers": [
    {
      "magFilter": 9729,
      "minFilter": 9987,
      "wrapS": 10497,
      "wrapT": 10497
    }
  ],
  "scene": 0,
  "scenes": [
    {
      "name": "OSG_Scene",
      "nodes": [
        0
      ]
    }
  ],
  "textures": [
    {
      "sampler": 0,
      "source": 0
    },
    {
      "sampler": 0,
      "source": 1
    },
    {
      "sampler": 0,
      "source": 2
    }
  ]
}

